<svg id="Layer_1" xmlns="http://www.w3.org/2000/svg" xmlns:xlink="http://www.w3.org/1999/xlink" width="1000" height="1000" viewBox="-913 -139 1000 1000"><style>.st0{fill:#41D6C3;} .st1{fill:#FFFFFF;} .st2{fill:#006D5D;} .st3{clip-path:url(#SVGID_2_);fill:#005448;}</style><circle class="st0" cx="-413" cy="361" r="500"/><path class="st1" d="M-608.3 110.7v532.9H-76V110.7h-532.3zm20.7 20.7H-96v409.4h-491.6V131.4z"/><path class="st1" d="M-280.4 397.9L-424 254.3l-102.2 102.2v122.9h368.7v-81.5l-61.5-61.5z"/><circle class="st1" cx="-198.9" cy="233.6" r="40.8"/><circle class="st2" cx="-565" cy="231.6" r="224.5"/><defs><circle id="SVGID_1_" cx="-565" cy="231.6" r="224.5"/></defs><clipPath id="SVGID_2_"><use xlink:href="#SVGID_1_" overflow="visible"/></clipPath><path class="st3" d="M-279.8 363.6l-202.4-202.5L-626.5 306v173.4h520.7V363.6l-87.3-86.7z"/><path class="st1" d="M-691.1 315.7h122.9V361h-122.9zM-691.1 212.2h122.9v45.3h-122.9zM-691.1 108.7h122.9V154h-122.9zM-529.4 108.7h25.9V361h-25.9z"/><path class="st1" d="M-523 218.7h77.6v25.9H-523z"/></svg>