<?xml version="1.0" encoding="utf-8"?>
<!-- Generator: Adobe Illustrator 19.2.1, SVG Export Plug-In . SVG Version: 6.00 Build 0)  -->
<!DOCTYPE svg PUBLIC "-//W3C//DTD SVG 1.1//EN" "http://www.w3.org/Graphics/SVG/1.1/DTD/svg11.dtd">
<svg version="1.1" xmlns="http://www.w3.org/2000/svg" xmlns:xlink="http://www.w3.org/1999/xlink" x="0px" y="0px"
	 viewBox="0 0 69.3 79.9" enable-background="new 0 0 69.3 79.9" xml:space="preserve">
<g id="Layer_1">
	<g>
		<g>
			<defs>
				<path id="SVGID_471_" d="M287.1,107.4h-36v-56h20v16h16V107.4z M273.1,49.4h-24v60h40v-42v-2L273.1,49.4z"/>
			</defs>
			<use xlink:href="#SVGID_471_"  overflow="visible" fill-rule="evenodd" clip-rule="evenodd" fill="#828180"/>
			<clipPath id="SVGID_2_">
				<use xlink:href="#SVGID_471_"  overflow="visible"/>
			</clipPath>
			<g clip-path="url(#SVGID_2_)">
				<defs>
					<rect id="SVGID_473_" x="-170.2" y="-936.2" width="1568" height="3489"/>
				</defs>
				<use xlink:href="#SVGID_473_"  overflow="visible" fill="#828180"/>
				<clipPath id="SVGID_4_">
					<use xlink:href="#SVGID_473_"  overflow="visible"/>
				</clipPath>
			</g>
		</g>
		<g>
			<defs>
				<path id="SVGID_475_" d="M271,100.5h2.4v-4.2h0c0.6,0.9,1.6,1.3,2.6,1.3c2.6,0,3.9-2.2,3.9-4.5c0-2.5-1.2-4.7-4-4.7
					c-1.1,0-2,0.4-2.6,1.4h0v-1.1H271V100.5z M275.4,95.8c-1.6,0-2.1-1.4-2.1-2.8s0.5-2.8,2.1-2.8c1.5,0,2.1,1.4,2.1,2.8
					C277.5,94.5,277,95.8,275.4,95.8z M266.9,97.4h2.4v-8.8h-2.4V97.4z M269.3,85.3h-2.4v2h2.4V85.3z M257.5,97.4h8.1v-1.8h-4.9
					l4.6-5.2v-1.8h-7.4v1.8h4.2l-4.6,5.2V97.4z"/>
			</defs>
			<use xlink:href="#SVGID_475_"  overflow="visible" fill-rule="evenodd" clip-rule="evenodd" fill="#828180"/>
			<clipPath id="SVGID_6_">
				<use xlink:href="#SVGID_475_"  overflow="visible"/>
			</clipPath>
			<g clip-path="url(#SVGID_6_)">
				<defs>
					<rect id="SVGID_477_" x="-167.7" y="-939.6" width="1568" height="3489"/>
				</defs>
				<use xlink:href="#SVGID_477_"  overflow="visible" fill="#828180"/>
				<clipPath id="SVGID_8_">
					<use xlink:href="#SVGID_477_"  overflow="visible"/>
				</clipPath>
			</g>
		</g>
	</g>
	<g>
		<defs>
			<path id="SVGID_479_" d="M54.2,67.9h-36v-56h20v16h16V67.9z M40.2,9.9h-24v60h40v-42v-2L40.2,9.9z"/>
		</defs>
		<use xlink:href="#SVGID_479_"  overflow="visible" fill-rule="evenodd" clip-rule="evenodd" fill="#828180"/>
		<clipPath id="SVGID_10_">
			<use xlink:href="#SVGID_479_"  overflow="visible"/>
		</clipPath>
		<g clip-path="url(#SVGID_10_)">
			<defs>
				<rect id="SVGID_481_" x="-403.2" y="-975.7" width="1568" height="3489"/>
			</defs>
			<use xlink:href="#SVGID_481_"  overflow="visible" fill="#828180"/>
			<clipPath id="SVGID_12_">
				<use xlink:href="#SVGID_481_"  overflow="visible"/>
			</clipPath>
			<rect x="8.8" y="7.3" clip-path="url(#SVGID_12_)" fill="#828180" width="50" height="70"/>
		</g>
	</g>
	<g>
		<defs>
			<path id="SVGID_483_" d="M38,61h2.4v-4.2h0c0.6,0.9,1.6,1.3,2.6,1.3c2.6,0,3.9-2.2,3.9-4.5c0-2.5-1.2-4.7-4-4.7
				c-1.1,0-2,0.4-2.6,1.4h0v-1.1H38V61z M42.5,56.4c-1.6,0-2.1-1.4-2.1-2.8s0.5-2.8,2.1-2.8c1.5,0,2.1,1.4,2.1,2.8
				C44.5,55,44,56.4,42.5,56.4z M34,57.9h2.4v-8.8H34V57.9z M36.4,45.8H34v2h2.4V45.8z M24.6,57.9h8.1v-1.8h-4.9l4.6-5.2v-1.8h-7.4
				V51h4.2l-4.6,5.2V57.9z"/>
		</defs>
		<use xlink:href="#SVGID_483_"  overflow="visible" fill-rule="evenodd" clip-rule="evenodd" fill="#828180"/>
		<clipPath id="SVGID_14_">
			<use xlink:href="#SVGID_483_"  overflow="visible"/>
		</clipPath>
		<g clip-path="url(#SVGID_14_)">
			<defs>
				<rect id="SVGID_485_" x="-400.7" y="-979.1" width="1568" height="3489"/>
			</defs>
			<use xlink:href="#SVGID_485_"  overflow="visible" fill="#828180"/>
			<clipPath id="SVGID_16_">
				<use xlink:href="#SVGID_485_"  overflow="visible"/>
			</clipPath>
			<rect x="19.6" y="40.8" clip-path="url(#SVGID_16_)" fill="#828180" width="32.4" height="25.2"/>
		</g>
	</g>
	<g>
		<g>
			<defs>
				<path id="SVGID_487_" d="M478.7,109.8h-36v-56h20v16h16V109.8z M464.7,51.8h-2h-22v60h40v-42v-2L464.7,51.8z"/>
			</defs>
			<use xlink:href="#SVGID_487_"  overflow="visible" fill-rule="evenodd" clip-rule="evenodd" fill="#828180"/>
			<clipPath id="SVGID_18_">
				<use xlink:href="#SVGID_487_"  overflow="visible"/>
			</clipPath>
			<g clip-path="url(#SVGID_18_)">
				<defs>
					<rect id="SVGID_489_" x="23.7" y="-936.2" width="1568" height="3489"/>
				</defs>
				<use xlink:href="#SVGID_489_"  overflow="visible" fill="#828180"/>
				<clipPath id="SVGID_20_">
					<use xlink:href="#SVGID_489_"  overflow="visible"/>
				</clipPath>
			</g>
		</g>
		<g>
			<defs>
				<path id="SVGID_491_" d="M462.4,103.8h2.4v-4.2h0c0.6,0.9,1.6,1.3,2.6,1.3c2.6,0,3.9-2.2,3.9-4.5c0-2.5-1.2-4.7-4-4.7
					c-1.1,0-2,0.4-2.6,1.4h0V92h-2.3V103.8z M466.9,99.2c-1.6,0-2.1-1.4-2.1-2.8s0.5-2.8,2.1-2.8c1.5,0,2.1,1.4,2.1,2.8
					C469,97.8,468.4,99.2,466.9,99.2z M458.4,100.8h2.4V92h-2.4V100.8z M460.8,88.6h-2.4v2h2.4V88.6z M449,100.8h8.1v-1.8h-4.9
					l4.6-5.2V92h-7.4v1.8h4.2l-4.6,5.2V100.8z"/>
			</defs>
			<use xlink:href="#SVGID_491_"  overflow="visible" fill-rule="evenodd" clip-rule="evenodd" fill="#828180"/>
			<clipPath id="SVGID_22_">
				<use xlink:href="#SVGID_491_"  overflow="visible"/>
			</clipPath>
			<g clip-path="url(#SVGID_22_)">
				<defs>
					<rect id="SVGID_493_" x="23.7" y="-936.2" width="1568" height="3489"/>
				</defs>
				<use xlink:href="#SVGID_493_"  overflow="visible" fill="#828180"/>
				<clipPath id="SVGID_24_">
					<use xlink:href="#SVGID_493_"  overflow="visible"/>
				</clipPath>
			</g>
		</g>
	</g>
</g>
<g id="Layer_2">
</g>
</svg>
