<?xml version="1.0" encoding="utf-8"?>
<!-- Generator: Adobe Illustrator 19.1.0, SVG Export Plug-In . SVG Version: 6.00 Build 0)  -->
<svg version="1.1" id="Layer_1" xmlns="http://www.w3.org/2000/svg" xmlns:xlink="http://www.w3.org/1999/xlink" x="0px" y="0px"
	 viewBox="0 0 60 60" style="enable-background:new 0 0 60 60;" xml:space="preserve">
<style type="text/css">
	.st0{fill:#D64527;}
</style>
<path class="st0" d="M30,60C13.4,60,0,46.6,0,30c0-16.5,13.4-30,30-30c16.5,0,30,13.4,30,30C59.9,46.6,46.5,60,30,60z M30,3.8
	C15.5,3.8,3.7,15.6,3.7,30S15.5,56.3,30,56.3S56.2,44.5,56.2,30S44.4,3.8,30,3.8z"/>
<polygon class="st0" points="26.3,11.6 26.3,19 28.1,37.4 31.8,37.4 33.6,19 33.6,11.6 "/>
<circle class="st0" cx="30" cy="44.8" r="3.7"/>
</svg>
